<?xml version="1.0" encoding="utf-8"?>
<!-- Generator: Adobe Illustrator 21.0.0, SVG Export Plug-In . SVG Version: 6.00 Build 0)  -->
<svg version="1.1" id="bold" xmlns="http://www.w3.org/2000/svg" xmlns:xlink="http://www.w3.org/1999/xlink" x="0px" y="0px"
	 viewBox="0 0 512 512" style="enable-background:new 0 0 512 512;" xml:space="preserve">
<style type="text/css">
	.st0{fill:#3F7EE4;}
</style>
<path class="st0" d="M181.3,448c-0.8,0-1.5-0.1-2.3-0.3C177.3,447.4,0,406.3,0,211.8V74.7c0-4.4,2.8-8.4,6.9-10l170.7-64
	c2.4-0.9,5.1-0.9,7.5,0l170.7,64c4.2,1.6,6.9,5.5,6.9,10v137.2c0,194.5-177.3,235.6-179.1,235.9C182.9,447.9,182.1,448,181.3,448
	L181.3,448z"/>
<path class="st0" d="M426.7,405.3c-23.5,0-42.7-19.1-42.7-42.7c0-23.5,19.1-42.7,42.7-42.7c23.5,0,42.7,19.1,42.7,42.7
	C469.3,386.2,450.2,405.3,426.7,405.3z"/>
<path class="st0" d="M496,512H357.3c-8.8,0-16-7.2-16-16v-10.7c0-32.4,26.3-58.7,58.7-58.7h53.3c32.4,0,58.7,26.3,58.7,58.7V496
	C512,504.8,504.8,512,496,512z"/>
</svg>
