<?xml version="1.0" encoding="utf-8"?>
<!-- Generator: Adobe Illustrator 21.0.0, SVG Export Plug-In . SVG Version: 6.00 Build 0)  -->
<svg version="1.1" id="Capa_1" xmlns="http://www.w3.org/2000/svg" xmlns:xlink="http://www.w3.org/1999/xlink" x="0px" y="0px"
	 viewBox="0 0 30.7 30.7" style="enable-background:new 0 0 30.7 30.7;" xml:space="preserve">
<style type="text/css">
	.st0{fill:#3F7EE4;}
</style>
<g>
	<path class="st0" d="M30.7,26.5l0-19.9c0-0.6-0.5-1.1-1.1-1.1h-14c-0.4,0-0.8-0.8-0.8-1.1V4.3c0-0.6-0.5-1.2-1.2-1.2H6.2
		C5.5,3.1,5,3.6,5,4.3v0.1c0,0.3-0.3,1.1-0.8,1.1h0C3.6,5.5,3.1,6,3.1,6.6l0,5.8H0.8c0,0-1.1-0.1-0.7,1.2l2.5,12.9
		c0,0.6,0.5,1.2,1.1,1.2h26.5C30.8,27.7,30.7,26.5,30.7,26.5z M20,24.9l-1.6,1.6c-0.7,0.7-1.8,0.7-2.4,0L14.4,25
		c-0.7-0.7-0.7-1.7,0-2.4L16,21c0.7-0.7,1.8-0.7,2.4,0L17.5,22c-0.3-0.1-0.6,0-0.9,0.3l-1,1c-0.3,0.3-0.3,0.9,0,1.2l0.9,0.9
		c0.3,0.3,0.9,0.3,1.2,0l1-1c0.2-0.2,0.4-0.6,0.3-0.9l1-0.9C20.7,23.2,20.6,24.3,20,24.9z M20.7,19.5c0.2-0.2,0.6-0.2,0.8,0
		c0.2,0.2,0.2,0.6,0,0.8L18.8,23c-0.2,0.2-0.6,0.2-0.8,0c-0.2-0.2-0.2-0.6,0-0.8L20.7,19.5z M25.1,19.9l-1.7,1.6
		c-0.7,0.6-1.7,0.6-2.4,0l0.9-0.9c0.3,0.1,0.6,0,0.9-0.3l1.1-1c0.3-0.3,0.3-0.9,0-1.2L23,17.2c-0.3-0.3-0.9-0.3-1.2,0l-1.1,1
		c-0.2,0.2-0.4,0.6-0.3,0.8L19.5,20c-0.7-0.6-0.7-1.7,0-2.3l1.7-1.6c0.7-0.6,1.7-0.6,2.4,0l1.5,1.5C25.7,18.2,25.7,19.2,25.1,19.9z
		 M29.4,14l0,13l-2.5-13.9c-0.2-0.8-1.1-0.7-1.1-0.7H4.5V8h24.8V14z"/>
</g>
</svg>
