<?xml version="1.0" encoding="utf-8"?>
<!-- Generator: Adobe Illustrator 21.0.0, SVG Export Plug-In . SVG Version: 6.00 Build 0)  -->
<svg version="1.1" id="Layer_1" xmlns="http://www.w3.org/2000/svg" xmlns:xlink="http://www.w3.org/1999/xlink" x="0px" y="0px"
	 viewBox="0 0 512 512" style="enable-background:new 0 0 512 512;" xml:space="preserve">
<style type="text/css">
	.st0{fill:#3F7EE4;}
</style>
<g id="File_system">
	<path class="st0" d="M480,264H32v192c0,13.3,10.7,24,24,24h400c13.3,0,24-10.7,24-24V264z M332.1,317.1l-8.8,26.5
		c-3.3,9.8-12.5,16.4-22.8,16.4h-88.9c-10.3,0-19.5-6.6-22.7-16.4l-8.9-26.5c-2.8-8.4,1.7-17.4,10.1-20.2c1.6-0.5,3.3-0.8,5.1-0.8
		h121.8c8.8,0,16,7.1,16,16C332.9,313.7,332.7,315.4,332.1,317.1L332.1,317.1z"/>
	<path class="st0" d="M203.9,338.5c1.1,3.3,4.1,5.5,7.6,5.5h88.9c3.4,0,6.5-2.2,7.6-5.5l8.8-26.5H195.1L203.9,338.5z"/>
	<path class="st0" d="M393.5,64H118.5l-11,40h297.2L393.5,64z"/>
	<path class="st0" d="M411.8,32H100.2c-3.6,0-6.8,2.4-7.7,5.9L34.5,248h443l-58-210.1C418.6,34.4,415.4,32,411.8,32L411.8,32z
		 M452.3,228.8c-1.5,2-3.9,3.2-6.4,3.2H66c-4.4,0-8-3.6-8-8c0-0.7,0.1-1.4,0.3-2.1l46.3-168c1-3.5,4.1-5.9,7.7-5.9h287.3
		c3.6,0,6.8,2.4,7.7,5.9l46.3,168C454.4,224.3,453.9,226.9,452.3,228.8L452.3,228.8z"/>
	<path class="st0" d="M76.5,216h358.9l-11-40H87.6L76.5,216z"/>
	<path class="st0" d="M92,160h328l-11-40H103L92,160z"/>
</g>
</svg>
