<?xml version="1.0" encoding="utf-8"?>
<!-- Generator: Adobe Illustrator 21.0.0, SVG Export Plug-In . SVG Version: 6.00 Build 0)  -->
<svg version="1.1" id="Layer_1" xmlns="http://www.w3.org/2000/svg" xmlns:xlink="http://www.w3.org/1999/xlink" x="0px" y="0px"
	 viewBox="0 0 512 512" style="enable-background:new 0 0 512 512;" xml:space="preserve">
<style type="text/css">
	.st0{fill:#3F7EE4;}
</style>
<path class="st0" d="M264,280h56v16h-56V280z"/>
<path class="st0" d="M264,408h176v-96h-56v24c0,4.4-3.6,8-8,8c-1.6,0-3.1-0.5-4.4-1.3L352,329.6l-19.6,13c-3.7,2.5-8.6,1.5-11.1-2.2
	c-0.9-1.3-1.3-2.8-1.3-4.4v-24h-56V408z"/>
<path class="st0" d="M356.4,313.3L368,321v-41h-32v41l11.6-7.7C350.2,311.6,353.8,311.6,356.4,313.3z"/>
<path class="st0" d="M72,136h56v16H72V136z"/>
<path class="st0" d="M432,456h48v16h-48V456z"/>
<path class="st0" d="M384,280h56v16h-56V280z"/>
<path class="st0" d="M72,264h176v-96h-56v24c0,4.4-3.6,8-8,8c-1.6,0-3.1-0.5-4.4-1.3L160,185.6l-19.6,13c-3.7,2.5-8.6,1.5-11.1-2.2
	c-0.9-1.3-1.3-2.8-1.3-4.4v-24H72V264z"/>
<path class="st0" d="M32,424h448v16H32V424z"/>
<path class="st0" d="M32,456h48v16H32V456z"/>
<path class="st0" d="M232,456h48v16h-48V456z"/>
<path class="st0" d="M264,136h56v16h-56V136z"/>
<path class="st0" d="M72,280h56v16H72V280z"/>
<path class="st0" d="M155.6,313.3c2.7-1.8,6.2-1.8,8.9,0L176,321v-41h-32v41L155.6,313.3z"/>
<path class="st0" d="M72,408h176v-96h-56v24c0,4.4-3.6,8-8,8c-1.6,0-3.1-0.5-4.4-1.3L160,329.6l-19.6,13c-3.7,2.5-8.6,1.5-11.1-2.2
	c-0.9-1.3-1.3-2.8-1.3-4.4v-24H72V408z"/>
<path class="st0" d="M192,280h56v16h-56V280z"/>
<path class="st0" d="M192,136h56v16h-56V136z"/>
<path class="st0" d="M384,136h56v16h-56V136z"/>
<path class="st0" d="M356.4,169.3L368,177v-41h-32v41l11.6-7.7C350.2,167.6,353.8,167.6,356.4,169.3z"/>
<path class="st0" d="M440,168h-56v24c0,4.4-3.6,8-8,8c-1.6,0-3.1-0.5-4.4-1.3L352,185.6l-19.6,13c-3.7,2.5-8.6,1.5-11.1-2.2
	c-0.9-1.3-1.3-2.8-1.3-4.4v-24h-56v96h176V168z"/>
<path class="st0" d="M155.6,169.3c2.7-1.8,6.2-1.8,8.9,0L176,177v-41h-32v41L155.6,169.3z"/>
</svg>
