<?xml version="1.0" encoding="utf-8"?>
<!-- Generator: Adobe Illustrator 21.0.0, SVG Export Plug-In . SVG Version: 6.00 Build 0)  -->
<svg version="1.1" id="Layer_1" xmlns="http://www.w3.org/2000/svg" xmlns:xlink="http://www.w3.org/1999/xlink" x="0px" y="0px"
	 viewBox="0 0 512 512" style="enable-background:new 0 0 512 512;" xml:space="preserve">
<style type="text/css">
	.st0{fill:#3F7EE4;}
</style>
<path class="st0" d="M373.3,234.7c-76.5,0-138.7,62.2-138.7,138.7S296.9,512,373.3,512S512,449.8,512,373.3S449.8,234.7,373.3,234.7
	z M433.4,346.5l-69.3,80c-2.9,3.3-7.1,5.4-11.5,5.5c-0.2,0-0.4,0-0.6,0c-4.2,0-8.3-1.7-11.3-4.7L303.4,390c-6.3-6.3-6.3-16.4,0-22.6
	c6.3-6.3,16.4-6.3,22.6,0l25.2,25.2l58.1-67c5.8-6.7,15.9-7.4,22.6-1.6C438.5,329.7,439.2,339.8,433.4,346.5z"/>
<path class="st0" d="M196.7,0L93,0.4c-13.4,0-26,7.5-32.4,19.2L6.4,117.8l179.8-0.4L196.7,0z"/>
<path class="st0" d="M419.8,116.9L365,18.8C358.4,7,346-0.4,332.4-0.4L228.7,0l10.9,117.3L419.8,116.9z"/>
<path class="st0" d="M426.7,199.9c-16.9-5.1-34.8-7.9-53.3-7.9C273.3,192,192,273.3,192,373.3c0,18.6,2.8,36.7,8.1,53.5l-165.8,0.4
	c-0.2,0-0.2,0-0.2,0c-18.3,0-33.5-15.1-33.5-33.7l-0.9-243.8l197.3-0.4h32l197.3-0.6L426.7,199.9z"/>
</svg>
