<?xml version="1.0" encoding="utf-8"?>
<!-- Generator: Adobe Illustrator 21.0.0, SVG Export Plug-In . SVG Version: 6.00 Build 0)  -->
<svg version="1.1" id="Capa_1" xmlns="http://www.w3.org/2000/svg" xmlns:xlink="http://www.w3.org/1999/xlink" x="0px" y="0px"
	 viewBox="0 0 477.9 477.9" style="enable-background:new 0 0 477.9 477.9;" xml:space="preserve">
<style type="text/css">
	.st0{fill:#3F7EE4;}
</style>
<g>
	<g>
		<path class="st0" d="M385.2,332.3l-72.7-24.2c-1.7-0.6-3.6-0.9-5.4-0.9H170.7c-1.8,0-3.7,0.3-5.4,0.9l-72.7,24.2
			C37.3,350.7-0.1,402.5,0,460.8c0,9.4,7.6,17.1,17.1,17.1h443.7c9.4,0,17.1-7.6,17.1-17.1C477.9,402.5,440.6,350.7,385.2,332.3z"/>
	</g>
</g>
<g>
	<g>
		<path class="st0" d="M238.9,0c-56.6,0-102.4,45.8-102.4,102.4v68.3c0.1,56.5,45.9,102.3,102.4,102.4
			c56.5-0.1,102.3-45.9,102.4-102.4v-68.3C341.3,45.8,295.5,0,238.9,0z"/>
	</g>
</g>
</svg>
