<?xml version="1.0" encoding="iso-8859-1"?>
<!-- Generator: Adobe Illustrator 19.0.0, SVG Export Plug-In . SVG Version: 6.00 Build 0)  -->
<svg version="1.1" id="Capa_1" xmlns="http://www.w3.org/2000/svg" xmlns:xlink="http://www.w3.org/1999/xlink" x="0px" y="0px"
	 viewBox="0 0 512 512" style="enable-background:new 0 0 512 512;" xml:space="preserve">
<g>
	<g>
		<path d="M327.5,1.4c-26.535,0-51.838,9.654-71.5,26.908C236.338,11.054,211.035,1.4,184.5,1.4C124.673,1.4,76,50.073,76,109.9
			c0,30.538,9.43,61.249,28.029,91.28c14.465,23.359,34.508,46.367,59.571,68.387c42.174,37.055,83.827,58.498,85.58,59.393
			l6.82,3.482l6.82-3.482c1.753-0.895,43.406-22.338,85.58-59.393c25.063-22.02,45.105-45.028,59.571-68.387
			C426.57,171.149,436,140.438,436,109.9C436,50.073,387.327,1.4,327.5,1.4z M256,298.497c-30.184-17.131-150-91.291-150-188.597
			c0-43.285,35.215-78.5,78.5-78.5c23.177,0,45.058,10.186,60.032,27.945L256,72.946l11.468-13.601
			C282.442,41.585,304.323,31.4,327.5,31.4c43.285,0,78.5,35.215,78.5,78.5C406,207.207,286.184,281.366,256,298.497z"/>
	</g>
</g>
<g>
	<g>
		<path d="M377,360.6H135c-74.439,0-135,60.561-135,135v15h512v-15C512,421.161,451.439,360.6,377,360.6z M321.584,390.6
			c-16.229,18.726-40.059,30-65.584,30s-49.354-11.274-65.584-30H321.584z M31.068,480.6c7.3-50.817,51.126-90,103.932-90h19.002
			c20.454,36.742,59.473,60,101.998,60c42.525,0,81.544-23.258,101.998-60H377c52.805,0,96.631,39.183,103.932,90H31.068z"/>
	</g>
</g>
<g>
</g>
<g>
</g>
<g>
</g>
<g>
</g>
<g>
</g>
<g>
</g>
<g>
</g>
<g>
</g>
<g>
</g>
<g>
</g>
<g>
</g>
<g>
</g>
<g>
</g>
<g>
</g>
<g>
</g>
</svg>
